<mxfile host="Electron" modified="2024-04-24T15:59:55.097Z" agent="Mozilla/5.0 (X11; Linux x86_64) AppleWebKit/537.36 (KHTML, like Gecko) draw.io/24.1.0 Chrome/120.0.6099.109 Electron/28.1.0 Safari/537.36" etag="Ej5AFFSeIHpfah23bYU4" version="24.1.0" type="device">
  <diagram id="C5RBs43oDa-KdzZeNtuy" name="Page-1">
    <mxGraphModel dx="2876" dy="1197" grid="0" gridSize="10" guides="1" tooltips="1" connect="1" arrows="1" fold="1" page="1" pageScale="1" pageWidth="827" pageHeight="1169" background="#ffffff" math="0" shadow="0">
      <root>
        <mxCell id="WIyWlLk6GJQsqaUBKTNV-0" />
        <mxCell id="WIyWlLk6GJQsqaUBKTNV-1" parent="WIyWlLk6GJQsqaUBKTNV-0" />
        <mxCell id="Pxn0cdOW4ssLwR846cWk-48" style="edgeStyle=orthogonalEdgeStyle;rounded=0;orthogonalLoop=1;jettySize=auto;html=1;endSize=10;endArrow=block;endFill=0;entryX=0.5;entryY=1;entryDx=0;entryDy=0;exitX=0.5;exitY=0;exitDx=0;exitDy=0;textShadow=1;labelBorderColor=none;strokeColor=#000000;fontColor=#000000;labelBackgroundColor=none;strokeWidth=3;fontSize=15;fontStyle=1" parent="WIyWlLk6GJQsqaUBKTNV-1" source="Pxn0cdOW4ssLwR846cWk-34" target="Pxn0cdOW4ssLwR846cWk-27" edge="1">
          <mxGeometry relative="1" as="geometry">
            <mxPoint x="519" y="880" as="sourcePoint" />
            <mxPoint x="519" y="800" as="targetPoint" />
            <Array as="points">
              <mxPoint x="380" y="800" />
              <mxPoint x="380" y="800" />
            </Array>
          </mxGeometry>
        </mxCell>
        <mxCell id="Pxn0cdOW4ssLwR846cWk-49" style="edgeStyle=orthogonalEdgeStyle;rounded=0;orthogonalLoop=1;jettySize=auto;html=1;endSize=10;endArrow=block;endFill=0;exitX=0.5;exitY=0;exitDx=0;exitDy=0;entryX=0.5;entryY=1;entryDx=0;entryDy=0;textShadow=1;labelBorderColor=none;strokeColor=#000000;fontColor=#000000;labelBackgroundColor=none;strokeWidth=3;fontSize=15;fontStyle=1" parent="WIyWlLk6GJQsqaUBKTNV-1" source="Pxn0cdOW4ssLwR846cWk-39" target="Pxn0cdOW4ssLwR846cWk-27" edge="1">
          <mxGeometry relative="1" as="geometry">
            <mxPoint x="399.5" y="890" as="sourcePoint" />
            <mxPoint x="399.5" y="810" as="targetPoint" />
            <Array as="points">
              <mxPoint x="260" y="800" />
              <mxPoint x="380" y="800" />
            </Array>
          </mxGeometry>
        </mxCell>
        <mxCell id="Pxn0cdOW4ssLwR846cWk-53" style="edgeStyle=orthogonalEdgeStyle;rounded=0;orthogonalLoop=1;jettySize=auto;html=1;endSize=10;endArrow=block;endFill=0;exitX=0.5;exitY=0;exitDx=0;exitDy=0;entryX=0.5;entryY=1;entryDx=0;entryDy=0;textShadow=1;labelBorderColor=none;strokeColor=#000000;fontColor=#000000;labelBackgroundColor=none;strokeWidth=3;fontSize=15;fontStyle=1" parent="WIyWlLk6GJQsqaUBKTNV-1" source="Pxn0cdOW4ssLwR846cWk-35" target="Pxn0cdOW4ssLwR846cWk-27" edge="1">
          <mxGeometry relative="1" as="geometry">
            <mxPoint x="519" y="910" as="sourcePoint" />
            <mxPoint x="519" y="830" as="targetPoint" />
            <Array as="points">
              <mxPoint x="500" y="800" />
              <mxPoint x="380" y="800" />
            </Array>
          </mxGeometry>
        </mxCell>
        <mxCell id="Pxn0cdOW4ssLwR846cWk-77" style="edgeStyle=orthogonalEdgeStyle;rounded=0;orthogonalLoop=1;jettySize=auto;html=1;entryX=0.5;entryY=1;entryDx=0;entryDy=0;endSize=10;endArrow=block;endFill=0;textShadow=1;labelBorderColor=none;strokeColor=#000000;fontColor=#000000;labelBackgroundColor=none;strokeWidth=3;fontSize=15;fontStyle=1" parent="WIyWlLk6GJQsqaUBKTNV-1" source="Pxn0cdOW4ssLwR846cWk-76" target="Pxn0cdOW4ssLwR846cWk-27" edge="1">
          <mxGeometry relative="1" as="geometry">
            <Array as="points">
              <mxPoint x="-100" y="800" />
              <mxPoint x="380" y="800" />
            </Array>
          </mxGeometry>
        </mxCell>
        <mxCell id="Pxn0cdOW4ssLwR846cWk-43" style="edgeStyle=orthogonalEdgeStyle;rounded=0;orthogonalLoop=1;jettySize=auto;html=1;entryX=0.5;entryY=1;entryDx=0;entryDy=0;endSize=10;endArrow=block;endFill=0;exitX=0.5;exitY=0;exitDx=0;exitDy=0;textShadow=1;labelBorderColor=none;strokeColor=#000000;fontColor=#000000;labelBackgroundColor=none;strokeWidth=3;fontSize=15;fontStyle=1" parent="WIyWlLk6GJQsqaUBKTNV-1" source="Pxn0cdOW4ssLwR846cWk-38" target="Pxn0cdOW4ssLwR846cWk-27" edge="1">
          <mxGeometry relative="1" as="geometry">
            <mxPoint x="260" y="870" as="sourcePoint" />
            <mxPoint x="500" y="790" as="targetPoint" />
            <Array as="points">
              <mxPoint x="20" y="800" />
              <mxPoint x="380" y="800" />
            </Array>
          </mxGeometry>
        </mxCell>
        <mxCell id="Pxn0cdOW4ssLwR846cWk-45" style="edgeStyle=orthogonalEdgeStyle;rounded=0;orthogonalLoop=1;jettySize=auto;html=1;entryX=0.5;entryY=1;entryDx=0;entryDy=0;endSize=10;endArrow=block;endFill=0;exitX=0.5;exitY=0;exitDx=0;exitDy=0;textShadow=1;labelBorderColor=none;strokeColor=#000000;fontColor=#000000;labelBackgroundColor=none;strokeWidth=3;fontSize=15;fontStyle=1" parent="WIyWlLk6GJQsqaUBKTNV-1" source="Pxn0cdOW4ssLwR846cWk-33" target="Pxn0cdOW4ssLwR846cWk-27" edge="1">
          <mxGeometry relative="1" as="geometry">
            <mxPoint x="320" y="820" as="sourcePoint" />
            <mxPoint x="390" y="740" as="targetPoint" />
            <Array as="points">
              <mxPoint x="140" y="800" />
              <mxPoint x="380" y="800" />
            </Array>
          </mxGeometry>
        </mxCell>
        <mxCell id="Pxn0cdOW4ssLwR846cWk-54" style="edgeStyle=orthogonalEdgeStyle;rounded=0;orthogonalLoop=1;jettySize=auto;html=1;endSize=10;endArrow=block;endFill=0;entryX=0.5;entryY=1;entryDx=0;entryDy=0;textShadow=1;labelBorderColor=none;strokeColor=#000000;fontColor=#000000;labelBackgroundColor=none;strokeWidth=3;fontSize=15;fontStyle=1" parent="WIyWlLk6GJQsqaUBKTNV-1" source="Pxn0cdOW4ssLwR846cWk-41" target="Pxn0cdOW4ssLwR846cWk-27" edge="1">
          <mxGeometry relative="1" as="geometry">
            <mxPoint x="740" y="1070" as="sourcePoint" />
            <mxPoint x="380" y="800" as="targetPoint" />
            <Array as="points">
              <mxPoint x="740" y="800" />
              <mxPoint x="380" y="800" />
            </Array>
          </mxGeometry>
        </mxCell>
        <mxCell id="Pxn0cdOW4ssLwR846cWk-46" style="edgeStyle=orthogonalEdgeStyle;rounded=0;orthogonalLoop=1;jettySize=auto;html=1;endSize=10;endArrow=block;endFill=0;entryX=0.5;entryY=1;entryDx=0;entryDy=0;exitX=0.5;exitY=0;exitDx=0;exitDy=0;textShadow=1;labelBorderColor=none;strokeColor=#000000;fontColor=#000000;labelBackgroundColor=none;strokeWidth=3;fontSize=15;fontStyle=1" parent="WIyWlLk6GJQsqaUBKTNV-1" source="Pxn0cdOW4ssLwR846cWk-36" target="Pxn0cdOW4ssLwR846cWk-27" edge="1">
          <mxGeometry relative="1" as="geometry">
            <mxPoint x="585" y="850" as="sourcePoint" />
            <mxPoint x="535" y="770" as="targetPoint" />
            <Array as="points">
              <mxPoint x="620" y="800" />
              <mxPoint x="380" y="800" />
            </Array>
          </mxGeometry>
        </mxCell>
        <mxCell id="Pxn0cdOW4ssLwR846cWk-47" style="edgeStyle=orthogonalEdgeStyle;rounded=0;orthogonalLoop=1;jettySize=auto;html=1;endSize=10;endArrow=block;endFill=0;exitX=0.5;exitY=0;exitDx=0;exitDy=0;entryX=0.5;entryY=1;entryDx=0;entryDy=0;textShadow=1;labelBorderColor=none;strokeColor=#000000;fontColor=#000000;labelBackgroundColor=none;strokeWidth=3;fontSize=15;fontStyle=1" parent="WIyWlLk6GJQsqaUBKTNV-1" source="Pxn0cdOW4ssLwR846cWk-37" target="Pxn0cdOW4ssLwR846cWk-27" edge="1">
          <mxGeometry relative="1" as="geometry">
            <mxPoint x="770" y="850" as="sourcePoint" />
            <mxPoint x="660" y="760" as="targetPoint" />
            <Array as="points">
              <mxPoint x="860" y="800" />
              <mxPoint x="380" y="800" />
            </Array>
          </mxGeometry>
        </mxCell>
        <mxCell id="zkfFHV4jXpPFQw0GAbJ--0" value="User" style="swimlane;fontStyle=3;align=center;verticalAlign=top;childLayout=stackLayout;horizontal=1;startSize=30;horizontalStack=0;resizeParent=1;resizeLast=0;collapsible=1;marginBottom=0;rounded=0;shadow=0;strokeWidth=3;textShadow=1;labelBorderColor=none;strokeColor=#000000;fontColor=#000000;labelBackgroundColor=none;fillColor=none;fontSize=15;" parent="WIyWlLk6GJQsqaUBKTNV-1" vertex="1">
          <mxGeometry x="320" y="160" width="120" height="80" as="geometry">
            <mxRectangle x="230" y="140" width="160" height="26" as="alternateBounds" />
          </mxGeometry>
        </mxCell>
        <mxCell id="Pxn0cdOW4ssLwR846cWk-79" style="edgeStyle=orthogonalEdgeStyle;rounded=0;orthogonalLoop=1;jettySize=auto;html=1;entryX=0.5;entryY=0;entryDx=0;entryDy=0;endArrow=none;endFill=0;textShadow=1;labelBorderColor=none;strokeColor=#000000;fontColor=#000000;labelBackgroundColor=none;strokeWidth=3;fontSize=15;fontStyle=1" parent="WIyWlLk6GJQsqaUBKTNV-1" source="zkfFHV4jXpPFQw0GAbJ--6" target="Pxn0cdOW4ssLwR846cWk-26" edge="1">
          <mxGeometry relative="1" as="geometry">
            <Array as="points">
              <mxPoint x="300" y="480" />
              <mxPoint x="380" y="480" />
            </Array>
          </mxGeometry>
        </mxCell>
        <mxCell id="Pxn0cdOW4ssLwR846cWk-86" value="1" style="edgeLabel;html=1;align=center;verticalAlign=middle;resizable=0;points=[];fontSize=15;labelBackgroundColor=none;textShadow=1;labelBorderColor=none;fontColor=#000000;fontStyle=1" parent="Pxn0cdOW4ssLwR846cWk-79" vertex="1" connectable="0">
          <mxGeometry x="-0.8417" y="-2" relative="1" as="geometry">
            <mxPoint x="-18" y="11" as="offset" />
          </mxGeometry>
        </mxCell>
        <mxCell id="Pxn0cdOW4ssLwR846cWk-80" style="edgeStyle=orthogonalEdgeStyle;rounded=0;orthogonalLoop=1;jettySize=auto;html=1;entryX=0.5;entryY=0;entryDx=0;entryDy=0;endArrow=none;endFill=0;textShadow=1;labelBorderColor=none;strokeColor=#000000;fontColor=#000000;labelBackgroundColor=none;strokeWidth=3;fontSize=15;fontStyle=1" parent="WIyWlLk6GJQsqaUBKTNV-1" source="zkfFHV4jXpPFQw0GAbJ--6" target="Pxn0cdOW4ssLwR846cWk-70" edge="1">
          <mxGeometry relative="1" as="geometry">
            <Array as="points">
              <mxPoint x="140" y="360" />
            </Array>
          </mxGeometry>
        </mxCell>
        <mxCell id="zkfFHV4jXpPFQw0GAbJ--6" value="Builder" style="swimlane;fontStyle=1;align=center;verticalAlign=top;childLayout=stackLayout;horizontal=1;startSize=26;horizontalStack=0;resizeParent=1;resizeLast=0;collapsible=1;marginBottom=0;rounded=0;shadow=0;strokeWidth=3;textShadow=1;labelBorderColor=none;strokeColor=#000000;fontColor=#000000;labelBackgroundColor=none;fillColor=none;fontSize=15;" parent="WIyWlLk6GJQsqaUBKTNV-1" vertex="1">
          <mxGeometry x="240" y="320" width="120" height="80" as="geometry">
            <mxRectangle x="130" y="380" width="160" height="26" as="alternateBounds" />
          </mxGeometry>
        </mxCell>
        <mxCell id="zkfFHV4jXpPFQw0GAbJ--12" value="" style="endArrow=block;endSize=10;endFill=0;shadow=0;strokeWidth=3;rounded=0;curved=0;edgeStyle=elbowEdgeStyle;elbow=vertical;textShadow=1;labelBorderColor=none;strokeColor=#000000;fontColor=#000000;labelBackgroundColor=none;fontSize=15;fontStyle=1" parent="WIyWlLk6GJQsqaUBKTNV-1" source="zkfFHV4jXpPFQw0GAbJ--6" target="zkfFHV4jXpPFQw0GAbJ--0" edge="1">
          <mxGeometry width="160" relative="1" as="geometry">
            <mxPoint x="320" y="193" as="sourcePoint" />
            <mxPoint x="320" y="193" as="targetPoint" />
          </mxGeometry>
        </mxCell>
        <mxCell id="Pxn0cdOW4ssLwR846cWk-74" style="edgeStyle=orthogonalEdgeStyle;rounded=0;orthogonalLoop=1;jettySize=auto;html=1;entryX=0.5;entryY=0;entryDx=0;entryDy=0;endArrow=none;endFill=0;textShadow=1;labelBorderColor=none;strokeColor=#000000;fontColor=#000000;labelBackgroundColor=none;strokeWidth=3;fontSize=15;fontStyle=1" parent="WIyWlLk6GJQsqaUBKTNV-1" source="zkfFHV4jXpPFQw0GAbJ--13" target="Pxn0cdOW4ssLwR846cWk-26" edge="1">
          <mxGeometry relative="1" as="geometry">
            <Array as="points">
              <mxPoint x="460" y="480" />
              <mxPoint x="380" y="480" />
            </Array>
          </mxGeometry>
        </mxCell>
        <mxCell id="Pxn0cdOW4ssLwR846cWk-88" value="*" style="edgeLabel;html=1;align=center;verticalAlign=middle;resizable=0;points=[];fontSize=15;labelBackgroundColor=none;textShadow=1;labelBorderColor=none;fontColor=#000000;fontStyle=1" parent="Pxn0cdOW4ssLwR846cWk-74" vertex="1" connectable="0">
          <mxGeometry x="0.8488" relative="1" as="geometry">
            <mxPoint x="20" as="offset" />
          </mxGeometry>
        </mxCell>
        <mxCell id="zkfFHV4jXpPFQw0GAbJ--13" value="Guest" style="swimlane;fontStyle=1;align=center;verticalAlign=top;childLayout=stackLayout;horizontal=1;startSize=26;horizontalStack=0;resizeParent=1;resizeLast=0;collapsible=1;marginBottom=0;rounded=0;shadow=0;strokeWidth=3;textShadow=1;labelBorderColor=none;strokeColor=#000000;fontColor=#000000;labelBackgroundColor=none;fillColor=none;fontSize=15;" parent="WIyWlLk6GJQsqaUBKTNV-1" vertex="1">
          <mxGeometry x="400" y="320" width="120" height="80" as="geometry">
            <mxRectangle x="340" y="380" width="170" height="26" as="alternateBounds" />
          </mxGeometry>
        </mxCell>
        <mxCell id="zkfFHV4jXpPFQw0GAbJ--16" value="" style="endArrow=block;endSize=10;endFill=0;shadow=0;strokeWidth=3;rounded=0;curved=0;edgeStyle=elbowEdgeStyle;elbow=vertical;textShadow=1;labelBorderColor=none;strokeColor=#000000;fontColor=#000000;labelBackgroundColor=none;fontSize=15;fontStyle=1" parent="WIyWlLk6GJQsqaUBKTNV-1" source="zkfFHV4jXpPFQw0GAbJ--13" target="zkfFHV4jXpPFQw0GAbJ--0" edge="1">
          <mxGeometry width="160" relative="1" as="geometry">
            <mxPoint x="330" y="363" as="sourcePoint" />
            <mxPoint x="430" y="261" as="targetPoint" />
          </mxGeometry>
        </mxCell>
        <mxCell id="Pxn0cdOW4ssLwR846cWk-10" style="edgeStyle=orthogonalEdgeStyle;rounded=0;orthogonalLoop=1;jettySize=auto;html=1;entryX=0;entryY=0.5;entryDx=0;entryDy=0;endArrow=none;endFill=0;shadow=1;textShadow=1;labelBorderColor=none;strokeColor=#000000;fontColor=#000000;labelBackgroundColor=none;strokeWidth=3;fontSize=15;fontStyle=1" parent="WIyWlLk6GJQsqaUBKTNV-1" source="Pxn0cdOW4ssLwR846cWk-3" target="zkfFHV4jXpPFQw0GAbJ--6" edge="1">
          <mxGeometry relative="1" as="geometry">
            <Array as="points">
              <mxPoint x="100" y="360" />
              <mxPoint x="100" y="360" />
            </Array>
          </mxGeometry>
        </mxCell>
        <mxCell id="Pxn0cdOW4ssLwR846cWk-110" style="edgeStyle=orthogonalEdgeStyle;rounded=0;orthogonalLoop=1;jettySize=auto;html=1;entryX=0.5;entryY=0;entryDx=0;entryDy=0;dashed=1;dashPattern=12 12;endArrow=open;endFill=0;endSize=10;textShadow=1;labelBorderColor=none;strokeColor=#000000;fontColor=#000000;labelBackgroundColor=none;strokeWidth=3;fontSize=15;fontStyle=1" parent="WIyWlLk6GJQsqaUBKTNV-1" source="Pxn0cdOW4ssLwR846cWk-3" target="Pxn0cdOW4ssLwR846cWk-11" edge="1">
          <mxGeometry relative="1" as="geometry">
            <Array as="points">
              <mxPoint x="-300" y="420" />
              <mxPoint x="-300" y="420" />
            </Array>
          </mxGeometry>
        </mxCell>
        <mxCell id="h2Y3JZYVkYN6LVySSPrw-0" style="edgeStyle=orthogonalEdgeStyle;rounded=0;orthogonalLoop=1;jettySize=auto;html=1;exitX=0.5;exitY=0;exitDx=0;exitDy=0;" edge="1" parent="WIyWlLk6GJQsqaUBKTNV-1" source="Pxn0cdOW4ssLwR846cWk-3">
          <mxGeometry relative="1" as="geometry">
            <mxPoint x="-300.2857142857142" y="310" as="targetPoint" />
          </mxGeometry>
        </mxCell>
        <mxCell id="Pxn0cdOW4ssLwR846cWk-3" value="Billing Information" style="swimlane;fontStyle=1;childLayout=stackLayout;horizontal=1;startSize=50;horizontalStack=0;resizeParent=1;resizeParentMax=0;resizeLast=0;collapsible=1;marginBottom=0;whiteSpace=wrap;html=1;textShadow=1;labelBorderColor=none;strokeColor=#000000;fontColor=#000000;labelBackgroundColor=none;fillColor=none;fontSize=15;strokeWidth=3;" parent="WIyWlLk6GJQsqaUBKTNV-1" vertex="1">
          <mxGeometry x="-360" y="320" width="120" height="120" as="geometry" />
        </mxCell>
        <mxCell id="Pxn0cdOW4ssLwR846cWk-85" style="edgeStyle=orthogonalEdgeStyle;rounded=0;orthogonalLoop=1;jettySize=auto;html=1;entryX=0;entryY=0.5;entryDx=0;entryDy=0;endArrow=none;endFill=0;textShadow=1;labelBorderColor=none;strokeColor=#000000;fontColor=#000000;labelBackgroundColor=none;strokeWidth=3;fontSize=15;fontStyle=1" parent="WIyWlLk6GJQsqaUBKTNV-1" source="Pxn0cdOW4ssLwR846cWk-11" target="Pxn0cdOW4ssLwR846cWk-29" edge="1">
          <mxGeometry relative="1" as="geometry">
            <mxPoint x="-100" y="560" as="targetPoint" />
          </mxGeometry>
        </mxCell>
        <mxCell id="Pxn0cdOW4ssLwR846cWk-11" value="&lt;i style=&quot;font-size: 15px;&quot;&gt;Purchase&lt;/i&gt;" style="swimlane;fontStyle=1;childLayout=stackLayout;horizontal=1;startSize=30;horizontalStack=0;resizeParent=1;resizeParentMax=0;resizeLast=0;collapsible=1;marginBottom=0;whiteSpace=wrap;html=1;textShadow=1;labelBorderColor=none;strokeColor=#000000;fontColor=#000000;labelBackgroundColor=none;fillColor=none;fontSize=15;strokeWidth=3;" parent="WIyWlLk6GJQsqaUBKTNV-1" vertex="1">
          <mxGeometry x="-360" y="520" width="120" height="80" as="geometry" />
        </mxCell>
        <mxCell id="Pxn0cdOW4ssLwR846cWk-13" value="Credit" style="swimlane;fontStyle=1;childLayout=stackLayout;horizontal=1;startSize=30;horizontalStack=0;resizeParent=1;resizeParentMax=0;resizeLast=0;collapsible=1;marginBottom=0;whiteSpace=wrap;html=1;textShadow=1;labelBorderColor=none;strokeColor=#000000;fontColor=#000000;labelBackgroundColor=none;fillColor=none;fontSize=15;strokeWidth=3;" parent="WIyWlLk6GJQsqaUBKTNV-1" vertex="1">
          <mxGeometry x="-360" y="680" width="120" height="80" as="geometry" />
        </mxCell>
        <mxCell id="Pxn0cdOW4ssLwR846cWk-18" style="edgeStyle=elbowEdgeStyle;rounded=0;orthogonalLoop=1;jettySize=auto;html=1;endArrow=block;endFill=0;exitX=0.5;exitY=0;exitDx=0;exitDy=0;entryX=0.5;entryY=1;entryDx=0;entryDy=0;elbow=vertical;endSize=10;textShadow=1;labelBorderColor=none;strokeColor=#000000;fontColor=#000000;labelBackgroundColor=none;strokeWidth=3;fontSize=15;fontStyle=1" parent="WIyWlLk6GJQsqaUBKTNV-1" source="Pxn0cdOW4ssLwR846cWk-13" target="Pxn0cdOW4ssLwR846cWk-11" edge="1">
          <mxGeometry relative="1" as="geometry">
            <mxPoint x="-40" y="590" as="sourcePoint" />
            <mxPoint x="-40.5" y="520" as="targetPoint" />
          </mxGeometry>
        </mxCell>
        <mxCell id="Pxn0cdOW4ssLwR846cWk-26" value="Build" style="swimlane;fontStyle=1;childLayout=stackLayout;horizontal=1;startSize=30;horizontalStack=0;resizeParent=1;resizeParentMax=0;resizeLast=0;collapsible=1;marginBottom=0;whiteSpace=wrap;html=1;textShadow=1;labelBorderColor=none;strokeColor=#000000;fontColor=#000000;labelBackgroundColor=none;fillColor=none;fontSize=15;strokeWidth=3;" parent="WIyWlLk6GJQsqaUBKTNV-1" vertex="1">
          <mxGeometry x="320" y="560" width="120" height="80" as="geometry" />
        </mxCell>
        <mxCell id="Pxn0cdOW4ssLwR846cWk-28" style="edgeStyle=orthogonalEdgeStyle;rounded=0;orthogonalLoop=1;jettySize=auto;html=1;entryX=0.5;entryY=1;entryDx=0;entryDy=0;endArrow=diamond;endFill=0;strokeWidth=3;endSize=10;textShadow=1;labelBorderColor=none;strokeColor=#000000;fontColor=#000000;labelBackgroundColor=none;fontSize=15;fontStyle=1" parent="WIyWlLk6GJQsqaUBKTNV-1" source="Pxn0cdOW4ssLwR846cWk-27" target="Pxn0cdOW4ssLwR846cWk-26" edge="1">
          <mxGeometry relative="1" as="geometry" />
        </mxCell>
        <mxCell id="Pxn0cdOW4ssLwR846cWk-27" value="&lt;i style=&quot;font-size: 15px;&quot;&gt;PC Part&lt;/i&gt;" style="swimlane;fontStyle=1;childLayout=stackLayout;horizontal=1;startSize=30;horizontalStack=0;resizeParent=1;resizeParentMax=0;resizeLast=0;collapsible=1;marginBottom=0;whiteSpace=wrap;html=1;textShadow=1;labelBorderColor=none;strokeColor=#000000;fontColor=#000000;labelBackgroundColor=none;fillColor=none;fontSize=15;strokeWidth=3;" parent="WIyWlLk6GJQsqaUBKTNV-1" vertex="1">
          <mxGeometry x="320" y="680" width="120" height="80" as="geometry" />
        </mxCell>
        <mxCell id="Pxn0cdOW4ssLwR846cWk-84" style="edgeStyle=orthogonalEdgeStyle;rounded=0;orthogonalLoop=1;jettySize=auto;html=1;entryX=0;entryY=0.5;entryDx=0;entryDy=0;endArrow=none;endFill=0;textShadow=1;labelBorderColor=none;strokeColor=#000000;fontColor=#000000;labelBackgroundColor=none;strokeWidth=3;fontSize=15;fontStyle=1" parent="WIyWlLk6GJQsqaUBKTNV-1" source="Pxn0cdOW4ssLwR846cWk-29" target="Pxn0cdOW4ssLwR846cWk-27" edge="1">
          <mxGeometry relative="1" as="geometry">
            <Array as="points">
              <mxPoint x="-20" y="720" />
            </Array>
          </mxGeometry>
        </mxCell>
        <mxCell id="Pxn0cdOW4ssLwR846cWk-29" value="Store" style="swimlane;fontStyle=1;childLayout=stackLayout;horizontal=1;startSize=30;horizontalStack=0;resizeParent=1;resizeParentMax=0;resizeLast=0;collapsible=1;marginBottom=0;whiteSpace=wrap;html=1;textShadow=1;labelBorderColor=none;strokeColor=#000000;fontColor=#000000;labelBackgroundColor=none;fillColor=none;fontSize=15;strokeWidth=3;" parent="WIyWlLk6GJQsqaUBKTNV-1" vertex="1">
          <mxGeometry x="-80" y="520" width="120" height="80" as="geometry" />
        </mxCell>
        <mxCell id="Pxn0cdOW4ssLwR846cWk-33" value="GPU" style="swimlane;fontStyle=1;childLayout=stackLayout;horizontal=1;startSize=30;horizontalStack=0;resizeParent=1;resizeParentMax=0;resizeLast=0;collapsible=1;marginBottom=0;whiteSpace=wrap;html=1;textShadow=1;labelBorderColor=none;strokeColor=#000000;fontColor=#000000;labelBackgroundColor=none;fillColor=none;fontSize=15;strokeWidth=3;" parent="WIyWlLk6GJQsqaUBKTNV-1" vertex="1">
          <mxGeometry x="80" y="840" width="120" height="80" as="geometry" />
        </mxCell>
        <mxCell id="Pxn0cdOW4ssLwR846cWk-34" value="RAM" style="swimlane;fontStyle=1;childLayout=stackLayout;horizontal=1;startSize=30;horizontalStack=0;resizeParent=1;resizeParentMax=0;resizeLast=0;collapsible=1;marginBottom=0;whiteSpace=wrap;html=1;textShadow=1;labelBorderColor=none;strokeColor=#000000;fontColor=#000000;labelBackgroundColor=none;fillColor=none;fontSize=15;strokeWidth=3;" parent="WIyWlLk6GJQsqaUBKTNV-1" vertex="1">
          <mxGeometry x="320" y="840" width="120" height="80" as="geometry" />
        </mxCell>
        <mxCell id="Pxn0cdOW4ssLwR846cWk-35" value="Case" style="swimlane;fontStyle=1;childLayout=stackLayout;horizontal=1;startSize=30;horizontalStack=0;resizeParent=1;resizeParentMax=0;resizeLast=0;collapsible=1;marginBottom=0;whiteSpace=wrap;html=1;textShadow=1;labelBorderColor=none;strokeColor=#000000;fontColor=#000000;labelBackgroundColor=none;fillColor=none;fontSize=15;strokeWidth=3;" parent="WIyWlLk6GJQsqaUBKTNV-1" vertex="1">
          <mxGeometry x="440" y="960" width="120" height="80" as="geometry" />
        </mxCell>
        <mxCell id="Pxn0cdOW4ssLwR846cWk-36" value="PSU" style="swimlane;fontStyle=1;childLayout=stackLayout;horizontal=1;startSize=30;horizontalStack=0;resizeParent=1;resizeParentMax=0;resizeLast=0;collapsible=1;marginBottom=0;whiteSpace=wrap;html=1;textShadow=1;labelBorderColor=none;strokeColor=#000000;fontColor=#000000;labelBackgroundColor=none;fillColor=none;fontSize=15;strokeWidth=3;" parent="WIyWlLk6GJQsqaUBKTNV-1" vertex="1">
          <mxGeometry x="560" y="840" width="120" height="80" as="geometry" />
        </mxCell>
        <mxCell id="Pxn0cdOW4ssLwR846cWk-37" value="Motherboard" style="swimlane;fontStyle=1;childLayout=stackLayout;horizontal=1;startSize=30;horizontalStack=0;resizeParent=1;resizeParentMax=0;resizeLast=0;collapsible=1;marginBottom=0;whiteSpace=wrap;html=1;textShadow=1;labelBorderColor=none;strokeColor=#000000;fontColor=#000000;labelBackgroundColor=none;fillColor=none;fontSize=15;strokeWidth=3;" parent="WIyWlLk6GJQsqaUBKTNV-1" vertex="1">
          <mxGeometry x="800" y="840" width="120" height="80" as="geometry" />
        </mxCell>
        <mxCell id="Pxn0cdOW4ssLwR846cWk-38" value="Cooling System" style="swimlane;fontStyle=1;childLayout=stackLayout;horizontal=1;startSize=30;horizontalStack=0;resizeParent=1;resizeParentMax=0;resizeLast=0;collapsible=1;marginBottom=0;whiteSpace=wrap;html=1;textShadow=1;labelBorderColor=none;strokeColor=#000000;fontColor=#000000;labelBackgroundColor=none;fillColor=none;fontSize=15;strokeWidth=3;" parent="WIyWlLk6GJQsqaUBKTNV-1" vertex="1">
          <mxGeometry x="-40" y="960" width="120" height="80" as="geometry" />
        </mxCell>
        <mxCell id="Pxn0cdOW4ssLwR846cWk-39" value="Drive" style="swimlane;fontStyle=1;childLayout=stackLayout;horizontal=1;startSize=30;horizontalStack=0;resizeParent=1;resizeParentMax=0;resizeLast=0;collapsible=1;marginBottom=0;whiteSpace=wrap;html=1;textShadow=1;labelBorderColor=none;strokeColor=#000000;fontColor=#000000;labelBackgroundColor=none;fillColor=none;fontSize=15;strokeWidth=3;" parent="WIyWlLk6GJQsqaUBKTNV-1" vertex="1">
          <mxGeometry x="200" y="960" width="120" height="80" as="geometry" />
        </mxCell>
        <mxCell id="Pxn0cdOW4ssLwR846cWk-41" value="Lighting" style="swimlane;fontStyle=1;childLayout=stackLayout;horizontal=1;startSize=30;horizontalStack=0;resizeParent=1;resizeParentMax=0;resizeLast=0;collapsible=1;marginBottom=0;whiteSpace=wrap;html=1;textShadow=1;labelBorderColor=none;strokeColor=#000000;fontColor=#000000;labelBackgroundColor=none;fillColor=none;fontSize=15;strokeWidth=3;" parent="WIyWlLk6GJQsqaUBKTNV-1" vertex="1">
          <mxGeometry x="680" y="960" width="120" height="80" as="geometry" />
        </mxCell>
        <mxCell id="Pxn0cdOW4ssLwR846cWk-78" style="edgeStyle=orthogonalEdgeStyle;rounded=0;orthogonalLoop=1;jettySize=auto;html=1;entryX=1;entryY=0.5;entryDx=0;entryDy=0;endArrow=classic;endFill=1;textShadow=1;labelBorderColor=none;strokeColor=#000000;fontColor=#000000;labelBackgroundColor=none;strokeWidth=3;fontSize=15;fontStyle=1" parent="WIyWlLk6GJQsqaUBKTNV-1" source="Pxn0cdOW4ssLwR846cWk-58" target="Pxn0cdOW4ssLwR846cWk-26" edge="1">
          <mxGeometry relative="1" as="geometry" />
        </mxCell>
        <mxCell id="Pxn0cdOW4ssLwR846cWk-58" value="Wall of Builds" style="swimlane;fontStyle=1;childLayout=stackLayout;horizontal=1;startSize=30;horizontalStack=0;resizeParent=1;resizeParentMax=0;resizeLast=0;collapsible=1;marginBottom=0;whiteSpace=wrap;html=1;textShadow=1;labelBorderColor=none;strokeColor=#000000;fontColor=#000000;labelBackgroundColor=none;fillColor=none;fontSize=15;strokeWidth=3;" parent="WIyWlLk6GJQsqaUBKTNV-1" vertex="1">
          <mxGeometry x="560" y="560" width="120" height="80" as="geometry" />
        </mxCell>
        <mxCell id="Pxn0cdOW4ssLwR846cWk-62" value="&lt;i style=&quot;font-size: 15px;&quot;&gt;Building Mode&lt;/i&gt;" style="swimlane;fontStyle=1;childLayout=stackLayout;horizontal=1;startSize=30;horizontalStack=0;resizeParent=1;resizeParentMax=0;resizeLast=0;collapsible=1;marginBottom=0;whiteSpace=wrap;html=1;textShadow=1;labelBorderColor=none;strokeColor=#000000;fontColor=#000000;labelBackgroundColor=none;fillColor=none;fontSize=15;strokeWidth=3;" parent="WIyWlLk6GJQsqaUBKTNV-1" vertex="1">
          <mxGeometry x="720" y="160" width="120" height="80" as="geometry" />
        </mxCell>
        <mxCell id="Pxn0cdOW4ssLwR846cWk-66" style="edgeStyle=orthogonalEdgeStyle;rounded=0;orthogonalLoop=1;jettySize=auto;html=1;entryX=0.5;entryY=1;entryDx=0;entryDy=0;dashed=1;dashPattern=12 12;endArrow=block;endFill=0;endSize=10;textShadow=1;labelBorderColor=none;strokeColor=#000000;fontColor=#000000;labelBackgroundColor=none;strokeWidth=3;fontSize=15;fontStyle=1" parent="WIyWlLk6GJQsqaUBKTNV-1" source="Pxn0cdOW4ssLwR846cWk-63" target="Pxn0cdOW4ssLwR846cWk-62" edge="1">
          <mxGeometry relative="1" as="geometry">
            <Array as="points">
              <mxPoint x="620" y="280" />
              <mxPoint x="780" y="280" />
            </Array>
          </mxGeometry>
        </mxCell>
        <mxCell id="Pxn0cdOW4ssLwR846cWk-63" value="Beginner Mode" style="swimlane;fontStyle=1;childLayout=stackLayout;horizontal=1;startSize=30;horizontalStack=0;resizeParent=1;resizeParentMax=0;resizeLast=0;collapsible=1;marginBottom=0;whiteSpace=wrap;html=1;textShadow=1;labelBorderColor=none;strokeColor=#000000;fontColor=#000000;labelBackgroundColor=none;fillColor=none;fontSize=15;strokeWidth=3;" parent="WIyWlLk6GJQsqaUBKTNV-1" vertex="1">
          <mxGeometry x="560" y="320" width="120" height="80" as="geometry" />
        </mxCell>
        <mxCell id="Pxn0cdOW4ssLwR846cWk-68" style="edgeStyle=orthogonalEdgeStyle;rounded=0;orthogonalLoop=1;jettySize=auto;html=1;entryX=0.5;entryY=1;entryDx=0;entryDy=0;dashed=1;dashPattern=12 12;endArrow=block;endFill=0;endSize=10;textShadow=1;labelBorderColor=none;strokeColor=#000000;fontColor=#000000;labelBackgroundColor=none;strokeWidth=3;fontSize=15;fontStyle=1" parent="WIyWlLk6GJQsqaUBKTNV-1" source="Pxn0cdOW4ssLwR846cWk-64" target="Pxn0cdOW4ssLwR846cWk-62" edge="1">
          <mxGeometry relative="1" as="geometry" />
        </mxCell>
        <mxCell id="Pxn0cdOW4ssLwR846cWk-64" value="Normal Mode" style="swimlane;fontStyle=1;childLayout=stackLayout;horizontal=1;startSize=30;horizontalStack=0;resizeParent=1;resizeParentMax=0;resizeLast=0;collapsible=1;marginBottom=0;whiteSpace=wrap;html=1;textShadow=1;labelBorderColor=none;strokeColor=#000000;fontColor=#000000;labelBackgroundColor=none;fillColor=none;fontSize=15;strokeWidth=3;" parent="WIyWlLk6GJQsqaUBKTNV-1" vertex="1">
          <mxGeometry x="720" y="320" width="120" height="80" as="geometry" />
        </mxCell>
        <mxCell id="Pxn0cdOW4ssLwR846cWk-69" style="edgeStyle=orthogonalEdgeStyle;rounded=0;orthogonalLoop=1;jettySize=auto;html=1;entryX=0.5;entryY=1;entryDx=0;entryDy=0;dashed=1;dashPattern=12 12;endArrow=block;endFill=0;endSize=10;textShadow=1;labelBorderColor=none;strokeColor=#000000;fontColor=#000000;labelBackgroundColor=none;strokeWidth=3;fontSize=15;fontStyle=1" parent="WIyWlLk6GJQsqaUBKTNV-1" source="Pxn0cdOW4ssLwR846cWk-65" target="Pxn0cdOW4ssLwR846cWk-62" edge="1">
          <mxGeometry relative="1" as="geometry">
            <Array as="points">
              <mxPoint x="940" y="280" />
              <mxPoint x="780" y="280" />
            </Array>
          </mxGeometry>
        </mxCell>
        <mxCell id="Pxn0cdOW4ssLwR846cWk-65" value="Expert Mode" style="swimlane;fontStyle=1;childLayout=stackLayout;horizontal=1;startSize=30;horizontalStack=0;resizeParent=1;resizeParentMax=0;resizeLast=0;collapsible=1;marginBottom=0;whiteSpace=wrap;html=1;textShadow=1;labelBorderColor=none;strokeColor=#000000;fontColor=#000000;labelBackgroundColor=none;fillColor=none;fontSize=15;strokeWidth=3;" parent="WIyWlLk6GJQsqaUBKTNV-1" vertex="1">
          <mxGeometry x="880" y="320" width="120" height="80" as="geometry" />
        </mxCell>
        <mxCell id="Pxn0cdOW4ssLwR846cWk-81" style="edgeStyle=orthogonalEdgeStyle;rounded=0;orthogonalLoop=1;jettySize=auto;html=1;entryX=0;entryY=0.5;entryDx=0;entryDy=0;endArrow=none;endFill=0;textShadow=1;labelBorderColor=none;strokeColor=#000000;fontColor=#000000;labelBackgroundColor=none;strokeWidth=3;fontSize=15;fontStyle=1" parent="WIyWlLk6GJQsqaUBKTNV-1" source="Pxn0cdOW4ssLwR846cWk-70" target="Pxn0cdOW4ssLwR846cWk-26" edge="1">
          <mxGeometry relative="1" as="geometry">
            <Array as="points">
              <mxPoint x="140" y="600" />
            </Array>
          </mxGeometry>
        </mxCell>
        <mxCell id="Pxn0cdOW4ssLwR846cWk-70" value="Rating" style="swimlane;fontStyle=1;childLayout=stackLayout;horizontal=1;startSize=30;horizontalStack=0;resizeParent=1;resizeParentMax=0;resizeLast=0;collapsible=1;marginBottom=0;whiteSpace=wrap;html=1;textShadow=1;labelBorderColor=none;strokeColor=#000000;fontColor=#000000;labelBackgroundColor=none;fillColor=none;fontSize=15;strokeWidth=3;" parent="WIyWlLk6GJQsqaUBKTNV-1" vertex="1">
          <mxGeometry x="80" y="460" width="120" height="80" as="geometry" />
        </mxCell>
        <mxCell id="Pxn0cdOW4ssLwR846cWk-76" value="CPU" style="swimlane;fontStyle=1;childLayout=stackLayout;horizontal=1;startSize=30;horizontalStack=0;resizeParent=1;resizeParentMax=0;resizeLast=0;collapsible=1;marginBottom=0;whiteSpace=wrap;html=1;textShadow=1;labelBorderColor=none;strokeColor=#000000;fontColor=#000000;labelBackgroundColor=none;fillColor=none;fontSize=15;strokeWidth=3;" parent="WIyWlLk6GJQsqaUBKTNV-1" vertex="1">
          <mxGeometry x="-160" y="840" width="120" height="80" as="geometry" />
        </mxCell>
        <mxCell id="Pxn0cdOW4ssLwR846cWk-89" value="1" style="edgeLabel;html=1;align=center;verticalAlign=middle;resizable=0;points=[];fontSize=15;labelBackgroundColor=none;textShadow=1;labelBorderColor=none;fontColor=#000000;fontStyle=1" parent="WIyWlLk6GJQsqaUBKTNV-1" vertex="1" connectable="0">
          <mxGeometry x="480" y="429.9966666666667" as="geometry" />
        </mxCell>
        <mxCell id="Pxn0cdOW4ssLwR846cWk-90" value="1" style="edgeLabel;html=1;align=center;verticalAlign=middle;resizable=0;points=[];fontSize=15;labelBackgroundColor=none;textShadow=1;labelBorderColor=none;fontColor=#000000;fontStyle=1" parent="WIyWlLk6GJQsqaUBKTNV-1" vertex="1" connectable="0">
          <mxGeometry x="540" y="579.9966666666667" as="geometry" />
        </mxCell>
        <mxCell id="Pxn0cdOW4ssLwR846cWk-91" value="*" style="edgeLabel;html=1;align=center;verticalAlign=middle;resizable=0;points=[];fontSize=15;labelBackgroundColor=none;textShadow=1;labelBorderColor=none;fontColor=#000000;fontStyle=1" parent="WIyWlLk6GJQsqaUBKTNV-1" vertex="1" connectable="0">
          <mxGeometry x="460" y="584.9966666666668" as="geometry" />
        </mxCell>
        <mxCell id="Pxn0cdOW4ssLwR846cWk-92" value="1" style="edgeLabel;html=1;align=center;verticalAlign=middle;resizable=0;points=[];fontSize=15;labelBackgroundColor=none;textShadow=1;labelBorderColor=none;fontColor=#000000;fontStyle=1" parent="WIyWlLk6GJQsqaUBKTNV-1" vertex="1" connectable="0">
          <mxGeometry x="300" y="579.9966666666667" as="geometry" />
        </mxCell>
        <mxCell id="Pxn0cdOW4ssLwR846cWk-93" value="*" style="edgeLabel;html=1;align=center;verticalAlign=middle;resizable=0;points=[];fontSize=15;labelBackgroundColor=none;textShadow=1;labelBorderColor=none;fontColor=#000000;fontStyle=1" parent="WIyWlLk6GJQsqaUBKTNV-1" vertex="1" connectable="0">
          <mxGeometry x="160" y="559.9966666666668" as="geometry" />
        </mxCell>
        <mxCell id="Pxn0cdOW4ssLwR846cWk-95" value="1" style="edgeLabel;html=1;align=center;verticalAlign=middle;resizable=0;points=[];fontSize=15;labelBackgroundColor=none;textShadow=1;labelBorderColor=none;fontColor=#000000;fontStyle=1" parent="WIyWlLk6GJQsqaUBKTNV-1" vertex="1" connectable="0">
          <mxGeometry x="220" y="339.9966666666667" as="geometry" />
        </mxCell>
        <mxCell id="Pxn0cdOW4ssLwR846cWk-96" value="*" style="edgeLabel;html=1;align=center;verticalAlign=middle;resizable=0;points=[];fontSize=15;labelBackgroundColor=none;textShadow=1;labelBorderColor=none;fontColor=#000000;fontStyle=1" parent="WIyWlLk6GJQsqaUBKTNV-1" vertex="1" connectable="0">
          <mxGeometry x="150" y="439.9966666666668" as="geometry" />
        </mxCell>
        <mxCell id="Pxn0cdOW4ssLwR846cWk-100" value="1" style="edgeLabel;html=1;align=center;verticalAlign=middle;resizable=0;points=[];fontSize=15;labelBackgroundColor=none;textShadow=1;labelBorderColor=none;fontColor=#000000;fontStyle=1" parent="WIyWlLk6GJQsqaUBKTNV-1" vertex="1" connectable="0">
          <mxGeometry x="-220" y="339.9966666666667" as="geometry" />
        </mxCell>
        <mxCell id="Pxn0cdOW4ssLwR846cWk-101" value="1" style="edgeLabel;html=1;align=center;verticalAlign=middle;resizable=0;points=[];fontSize=15;labelBackgroundColor=none;textShadow=1;labelBorderColor=none;fontColor=#000000;fontStyle=1" parent="WIyWlLk6GJQsqaUBKTNV-1" vertex="1" connectable="0">
          <mxGeometry x="-100" y="539.9966666666667" as="geometry" />
        </mxCell>
        <mxCell id="Pxn0cdOW4ssLwR846cWk-102" value="*" style="edgeLabel;html=1;align=center;verticalAlign=middle;resizable=0;points=[];fontSize=15;labelBackgroundColor=none;textShadow=1;labelBorderColor=none;fontColor=#000000;fontStyle=1" parent="WIyWlLk6GJQsqaUBKTNV-1" vertex="1" connectable="0">
          <mxGeometry x="-220" y="539.9966666666668" as="geometry" />
        </mxCell>
        <mxCell id="Pxn0cdOW4ssLwR846cWk-104" value="1..*" style="edgeLabel;html=1;align=center;verticalAlign=middle;resizable=0;points=[];fontSize=15;labelBackgroundColor=none;textShadow=1;labelBorderColor=none;fontColor=#000000;fontStyle=1" parent="WIyWlLk6GJQsqaUBKTNV-1" vertex="1" connectable="0">
          <mxGeometry x="10" y="619.9966666666667" as="geometry" />
        </mxCell>
        <mxCell id="Pxn0cdOW4ssLwR846cWk-105" value="1..*" style="edgeLabel;html=1;align=center;verticalAlign=middle;resizable=0;points=[];fontSize=15;labelBackgroundColor=none;textShadow=1;labelBorderColor=none;fontColor=#000000;fontStyle=1" parent="WIyWlLk6GJQsqaUBKTNV-1" vertex="1" connectable="0">
          <mxGeometry x="290" y="699.9966666666667" as="geometry" />
        </mxCell>
        <mxCell id="h2Y3JZYVkYN6LVySSPrw-6" value="Builder" style="swimlane;childLayout=stackLayout;horizontal=1;startSize=30;horizontalStack=0;rounded=1;fontSize=15;fontStyle=1;strokeWidth=3;resizeParent=0;resizeLast=1;shadow=0;dashed=0;align=center;arcSize=4;whiteSpace=wrap;html=1;strokeColor=#000000;verticalAlign=middle;fontFamily=Helvetica;fontColor=#000000;labelBorderColor=none;labelBackgroundColor=none;fillColor=none;" vertex="1" parent="WIyWlLk6GJQsqaUBKTNV-1">
          <mxGeometry x="-20" y="120" width="120" height="160" as="geometry" />
        </mxCell>
        <mxCell id="h2Y3JZYVkYN6LVySSPrw-7" value="+id&lt;div&gt;+username&lt;/div&gt;&lt;div&gt;+password&lt;/div&gt;&lt;div&gt;+email&lt;/div&gt;&lt;div&gt;+billing info&lt;/div&gt;&lt;div&gt;+build&lt;/div&gt;" style="align=left;strokeColor=#000000;fillColor=none;spacingLeft=4;fontSize=15;verticalAlign=middle;resizable=0;rotatable=0;part=1;html=1;strokeWidth=3;fontFamily=Helvetica;fontColor=#000000;fontStyle=1;labelBorderColor=none;labelBackgroundColor=none;" vertex="1" parent="h2Y3JZYVkYN6LVySSPrw-6">
          <mxGeometry y="30" width="120" height="130" as="geometry" />
        </mxCell>
        <mxCell id="h2Y3JZYVkYN6LVySSPrw-8" style="edgeStyle=orthogonalEdgeStyle;rounded=0;orthogonalLoop=1;jettySize=auto;html=1;exitX=0.5;exitY=1;exitDx=0;exitDy=0;" edge="1" parent="h2Y3JZYVkYN6LVySSPrw-6" source="h2Y3JZYVkYN6LVySSPrw-7" target="h2Y3JZYVkYN6LVySSPrw-7">
          <mxGeometry relative="1" as="geometry" />
        </mxCell>
        <mxCell id="h2Y3JZYVkYN6LVySSPrw-9" value="Billing&lt;div&gt;Information&lt;/div&gt;" style="swimlane;childLayout=stackLayout;horizontal=1;startSize=40;horizontalStack=0;rounded=1;fontSize=15;fontStyle=1;strokeWidth=3;resizeParent=0;resizeLast=1;shadow=0;dashed=0;align=center;arcSize=4;whiteSpace=wrap;html=1;strokeColor=#000000;verticalAlign=middle;fontFamily=Helvetica;fontColor=#000000;labelBorderColor=none;labelBackgroundColor=none;fillColor=none;" vertex="1" parent="WIyWlLk6GJQsqaUBKTNV-1">
          <mxGeometry x="-220" y="100" width="120" height="200" as="geometry" />
        </mxCell>
        <mxCell id="h2Y3JZYVkYN6LVySSPrw-10" value="+builder&lt;div&gt;+name&lt;/div&gt;&lt;div&gt;+surname&lt;/div&gt;&lt;div&gt;+address&lt;/div&gt;&lt;div&gt;+postal code&lt;/div&gt;&lt;div&gt;+city&lt;/div&gt;&lt;div&gt;+country&lt;/div&gt;&lt;div&gt;&lt;br&gt;&lt;/div&gt;" style="align=left;strokeColor=#000000;fillColor=none;spacingLeft=4;fontSize=15;verticalAlign=middle;resizable=0;rotatable=0;part=1;html=1;strokeWidth=3;fontFamily=Helvetica;fontColor=#000000;fontStyle=1;labelBorderColor=none;labelBackgroundColor=none;" vertex="1" parent="h2Y3JZYVkYN6LVySSPrw-9">
          <mxGeometry y="40" width="120" height="160" as="geometry" />
        </mxCell>
        <mxCell id="h2Y3JZYVkYN6LVySSPrw-11" style="edgeStyle=orthogonalEdgeStyle;rounded=0;orthogonalLoop=1;jettySize=auto;html=1;exitX=0.5;exitY=1;exitDx=0;exitDy=0;" edge="1" parent="h2Y3JZYVkYN6LVySSPrw-9" source="h2Y3JZYVkYN6LVySSPrw-10" target="h2Y3JZYVkYN6LVySSPrw-10">
          <mxGeometry relative="1" as="geometry" />
        </mxCell>
        <mxCell id="h2Y3JZYVkYN6LVySSPrw-13" style="edgeStyle=orthogonalEdgeStyle;rounded=0;orthogonalLoop=1;jettySize=auto;html=1;exitX=0.5;exitY=0;exitDx=0;exitDy=0;" edge="1" parent="h2Y3JZYVkYN6LVySSPrw-9" source="h2Y3JZYVkYN6LVySSPrw-10" target="h2Y3JZYVkYN6LVySSPrw-10">
          <mxGeometry relative="1" as="geometry" />
        </mxCell>
      </root>
    </mxGraphModel>
  </diagram>
</mxfile>
